<svg xmlns="http://www.w3.org/2000/svg" viewBox="0 0 420 160">
  <defs>
    <linearGradient id="g" x1="0" y1="0" x2="1" y2="1">
      <stop offset="0%" stop-color="#c7ff24"/>
      <stop offset="55%" stop-color="#8cff00"/>
      <stop offset="100%" stop-color="#29b900"/>
    </linearGradient>
    <filter id="glow"><feGaussianBlur stdDeviation="3"/><feMerge><feMergeNode/><feMergeNode in="SourceGraphic"/></feMerge></filter>
  </defs>
  <rect width="420" height="160" fill="transparent"/>
  <path d="M80 18 C43 18 18 45 18 82 C18 120 58 136 80 154 C102 136 142 120 142 82 C142 45 117 18 80 18Z"
        fill="none" stroke="url(#g)" stroke-width="13" stroke-linecap="round" filter="url(#glow)"/>
  <path d="M92 82 H142" stroke="url(#g)" stroke-width="16"/>
  <path d="M92 52 C70 38 42 52 40 78 C38 104 65 119 88 104" fill="none" stroke="#fff" stroke-width="12" stroke-linecap="round"/>
  <path d="M84 126 L96 126 L82 148 L98 148 L70 160 L78 140 L64 140Z" fill="url(#g)"/>
  <ellipse cx="80" cy="143" rx="45" ry="10" fill="none" stroke="#fff" stroke-width="7"/>
  <text x="165" y="72" fill="#8cff00" font-family="Arial, sans-serif" font-weight="800" font-size="34" letter-spacing="12">GOVO</text>
  <text x="165" y="112" fill="#ffffff" font-family="Arial, sans-serif" font-weight="700" font-size="24" letter-spacing="11">EXPRESS</text>
</svg>
